P1
67 14
0000000000000000000000000000000000000000000000000000000000000000000
0111111111110011100000000001110001110000000000000111111000000000000
0111111111110001110000000011100001110000000000001110011100000000000
0111000000000000111000000111000000000000000000011100001110000000000
0111000000000000011100001110000001110000000000111000000111000000000
0111000000000000001110011100000001110000000001110000000011100000000
0111111111110000000111111000000001110000000011111111111111110000000
0111111111110000000111111000000001110000000111111111111111111000000
0111000000000000001110011100000001110000001110000000000000011100000
0111000000000000011100001110000001110000011100000000000000001110000
0111000000000000111000000111000001110000111000000000000000000111000
0111111111110001110000000011100001110001110000000000000000000011100
0111111111110011100000000001110001110011100000000000000000000001110
0000000000000000000000000000000000000000000000000000000000000000000
