P1
29 14
00000000000000000000000000000
00000011100000000000111000000
00000011100000000000111000000
00000011100000000000111000000
00000011100000000000111000000
00000011100000000000111000000
00000011100000000000111000000
00000000000000000000000000000
01110000000000000000000001110
00111100000000000000000111100
00001111000000000000011110000
00000011111111111111111000000
00000000111111111111100000000
00000000000000000000000000000
